<svg id="Layer_1" data-name="Layer 1" xmlns="http://www.w3.org/2000/svg" viewBox="0 0 218.67 223.03"><defs><style>.cls-1,.cls-6{fill:#bfb8b2;}.cls-1{stroke:#afa7a0;stroke-linecap:round;stroke-linejoin:round;stroke-width:3px;}.cls-2{fill:#adb8eb;}.cls-3{fill:#afa7a0;}.cls-4{fill:#afaaa8;}.cls-5{fill:#d6d1ce;}</style></defs><path class="cls-1" d="M85.54,177.07C61.23,135,74.39,77.07,141.13,39.62a104.38,104.38,0,1,0,92,158.39C170.84,232.49,109.83,219.15,85.54,177.07Z" transform="translate(-37.9 -26.85)"/><path class="cls-2" d="M154,34.26a1,1,0,0,1-.71-.38.93.93,0,0,1-.21-.74,1,1,0,0,1,.4-.69,1,1,0,0,1,.78-.19l7.63,1a1.08,1.08,0,0,1,.71.38,1,1,0,0,1-.19,1.44,1.08,1.08,0,0,1-.79.18ZM159.62,49a5.33,5.33,0,0,1-4.42-3.41,6.25,6.25,0,0,1-.33-3.07l1.92-14.62a1.2,1.2,0,0,1,.43-.8,1.11,1.11,0,0,1,.86-.22,1.13,1.13,0,0,1,.8.44,1.16,1.16,0,0,1,.22.88L157.18,42.8a3.49,3.49,0,0,0,.57,2.61,3,3,0,0,0,2.17,1.27l.81.11a1,1,0,0,1,.73.43,1.21,1.21,0,0,1,.19.87,1,1,0,0,1-.47.78,1.33,1.33,0,0,1-.93.2Z" transform="translate(-37.9 -26.85)"/><path class="cls-2" d="M172.09,52.09a8.46,8.46,0,0,1-3.81-2.29,7.87,7.87,0,0,1-2-3.73,9.13,9.13,0,0,1,2.53-8.27,7.84,7.84,0,0,1,3.73-2,9.07,9.07,0,0,1,8.23,2.51,7.89,7.89,0,0,1,2,3.73,8.88,8.88,0,0,1-.2,4.47,8.49,8.49,0,0,1-2.31,3.81,8.2,8.2,0,0,1-3.73,2A8.41,8.41,0,0,1,172.09,52.09Zm.62-2a6.08,6.08,0,0,0,3.24.13,5.77,5.77,0,0,0,2.72-1.5,6.59,6.59,0,0,0,1.7-2.85,6.68,6.68,0,0,0,.19-3.33,5.73,5.73,0,0,0-1.42-2.79,6.08,6.08,0,0,0-2.76-1.69,6.18,6.18,0,0,0-3.24-.14,5.9,5.9,0,0,0-2.74,1.51,6.55,6.55,0,0,0-1.71,2.87,6.31,6.31,0,0,0-.18,3.32A5.82,5.82,0,0,0,170,48.38,6,6,0,0,0,172.71,50.08Z" transform="translate(-37.9 -26.85)"/><path class="cls-2" d="M197.73,64.1a5.44,5.44,0,0,1-2-2.15,5.5,5.5,0,0,1-.58-2.8,6.12,6.12,0,0,1,1-2.93L204,43.72a1.13,1.13,0,0,1,.72-.54,1.05,1.05,0,0,1,.88.16,1.15,1.15,0,0,1,.37,1.62l-7.83,12.49a3.52,3.52,0,0,0-.57,2.62A3,3,0,0,0,199,62.13l.69.44a1,1,0,0,1,.49.69,1.23,1.23,0,0,1-.19.88,1,1,0,0,1-.75.51,1.31,1.31,0,0,1-.93-.21Zm1-15.75a1,1,0,0,1-.49-.64.93.93,0,0,1,.12-.76,1,1,0,0,1,.65-.47,1.08,1.08,0,0,1,.79.16l6.51,4.09a1.06,1.06,0,0,1,.49.64,1,1,0,0,1-.14.79.92.92,0,0,1-.63.44,1,1,0,0,1-.79-.16Z" transform="translate(-37.9 -26.85)"/><path class="cls-2" d="M203.13,67.82a1.13,1.13,0,0,1-.43-.81,1.1,1.1,0,0,1,.31-.83l9.41-10.6a1.09,1.09,0,0,1,1.65-.1,1.08,1.08,0,0,1,.41.79,1.14,1.14,0,0,1-.33.85l-9.4,10.6a1.09,1.09,0,0,1-1.62.1Zm4.46-5a1.12,1.12,0,0,1-.42-.82,1.22,1.22,0,0,1,.32-.84L217.1,50.3a1.19,1.19,0,0,1,2.07.69,1.19,1.19,0,0,1-.34.85l-9.6,10.83a1.14,1.14,0,0,1-.8.42A1.07,1.07,0,0,1,207.59,62.79Zm5.24,13.64a1.11,1.11,0,0,1-.41-.81,1.08,1.08,0,0,1,.29-.83l5.2-5.87a5.94,5.94,0,0,0,1.51-2.77,4.53,4.53,0,0,0-.24-2.63,6.22,6.22,0,0,0-1.67-2.28,5.92,5.92,0,0,0-2.37-1.35,4.87,4.87,0,0,0-2.45-.08,3.87,3.87,0,0,0-2,1.24L209.43,60a6.47,6.47,0,0,1,3-1.86,6.8,6.8,0,0,1,3.47-.06,7.41,7.41,0,0,1,3.24,1.72A8.21,8.21,0,0,1,221.43,63a6.44,6.44,0,0,1,.26,3.72,8.39,8.39,0,0,1-2,3.79l-5.21,5.86a1.12,1.12,0,0,1-1.61.1Z" transform="translate(-37.9 -26.85)"/><path class="cls-2" d="M221.08,86.63a8.56,8.56,0,0,1-1.77-4.09,7.76,7.76,0,0,1,.57-4.15,8.71,8.71,0,0,1,2.81-3.48,9.06,9.06,0,0,1,4.09-1.83,7.54,7.54,0,0,1,4.05.42,7.82,7.82,0,0,1,3.35,2.61,7.55,7.55,0,0,1,1.59,3.81,7.07,7.07,0,0,1-.7,3.84A9.1,9.1,0,0,1,232.3,87a1,1,0,0,1-.8.22,1.07,1.07,0,0,1-.7-.45L223,76.61l1.54-1.16,7.91,10.39L231,85.37a6.92,6.92,0,0,0,2.11-2.4,5.2,5.2,0,0,0,.59-2.81,5.27,5.27,0,0,0-1.14-2.79A5.38,5.38,0,0,0,227,75.22a7.28,7.28,0,0,0-3,1.42,6.5,6.5,0,0,0-2.11,2.6,5.88,5.88,0,0,0-.45,3.09,6.1,6.1,0,0,0,1.28,3,6.75,6.75,0,0,0,1.63,1.51,5.29,5.29,0,0,0,1.82.83,1.26,1.26,0,0,1,.69.43,1,1,0,0,1,.25.71,1.14,1.14,0,0,1-.37.8.87.87,0,0,1-.79.16,8.32,8.32,0,0,1-2.65-1.17A8.56,8.56,0,0,1,221.08,86.63Z" transform="translate(-37.9 -26.85)"/><path class="cls-2" d="M232.13,103.92a1.18,1.18,0,0,1,0-.91,1.07,1.07,0,0,1,.69-.56L246.3,98a1.19,1.19,0,0,1,.91,0,1.14,1.14,0,0,1,.58.71,1.08,1.08,0,0,1-.06.9,1.14,1.14,0,0,1-.7.56l-13.45,4.45a1.13,1.13,0,0,1-.89,0A1.1,1.1,0,0,1,232.13,103.92Zm3.32,10a1.16,1.16,0,0,1,0-.9,1.07,1.07,0,0,1,.68-.58l8.24-2.72a4.93,4.93,0,0,0,2.88-2.13,3.67,3.67,0,0,0,.28-3.11,4.17,4.17,0,0,0-2.12-2.54,4.37,4.37,0,0,0-3.4-.14l-.52-1.58a7.64,7.64,0,0,1,3.52-.25,5.89,5.89,0,0,1,4.69,4,6,6,0,0,1,.19,3.26,5.81,5.81,0,0,1-1.59,2.78,8,8,0,0,1-3.2,1.86l-8.24,2.73a1.13,1.13,0,0,1-.89,0A1.12,1.12,0,0,1,235.45,114Zm3.3,10a1.16,1.16,0,0,1,0-.9,1.09,1.09,0,0,1,.68-.57l8.25-2.73a5,5,0,0,0,2.87-2.12,3.7,3.7,0,0,0,.29-3.12,4,4,0,0,0-2.15-2.51,4.56,4.56,0,0,0-3.53-.06l-.65-2a7.46,7.46,0,0,1,3.65-.29,6,6,0,0,1,3,1.46,6.66,6.66,0,0,1,1.85,2.91,5.9,5.9,0,0,1,.19,3.26,5.81,5.81,0,0,1-1.59,2.78,7.9,7.9,0,0,1-3.2,1.86l-8.24,2.73a1.1,1.1,0,0,1-.89,0A1.13,1.13,0,0,1,238.75,124Z" transform="translate(-37.9 -26.85)"/><path class="cls-2" d="M239.79,136.61a8.53,8.53,0,0,1,.76-4.39,7.76,7.76,0,0,1,2.75-3.2,9.14,9.14,0,0,1,8.63-.67,7.93,7.93,0,0,1,3.2,2.74,9.11,9.11,0,0,1,.66,8.59,8,8,0,0,1-2.75,3.19,8.91,8.91,0,0,1-4.25,1.45,8.42,8.42,0,0,1-4.38-.77,8.05,8.05,0,0,1-3.21-2.74A8.61,8.61,0,0,1,239.79,136.61Zm2.11-.17a6.13,6.13,0,0,0,1,3.07,5.79,5.79,0,0,0,2.39,2,6.45,6.45,0,0,0,3.28.53,6.55,6.55,0,0,0,3.17-1,5.71,5.71,0,0,0,2.07-2.34,6.16,6.16,0,0,0,.58-3.19,6.09,6.09,0,0,0-1.05-3.06,6,6,0,0,0-2.41-2,7,7,0,0,0-6.45.5,6,6,0,0,0-2.06,2.35A6.09,6.09,0,0,0,241.9,136.44Z" transform="translate(-37.9 -26.85)"/><path class="cls-2" d="M239.31,156.19a8.52,8.52,0,0,1,1.62-4.14,7.9,7.9,0,0,1,3.33-2.58,8.56,8.56,0,0,1,4.42-.53,8.66,8.66,0,0,1,4.17,1.63,7.85,7.85,0,0,1,2.58,3.34,8.54,8.54,0,0,1,.54,4.41,8.41,8.41,0,0,1-1.62,4.13A7.9,7.9,0,0,1,251,165a8.87,8.87,0,0,1-4.45.55,8.45,8.45,0,0,1-4.14-1.64,8,8,0,0,1-2.58-3.34A8.46,8.46,0,0,1,239.31,156.19Zm2.09.27a6.09,6.09,0,0,0,.42,3.22,5.82,5.82,0,0,0,1.94,2.43,6.49,6.49,0,0,0,3.1,1.19,6.61,6.61,0,0,0,3.31-.37,5.69,5.69,0,0,0,2.5-1.87,6.07,6.07,0,0,0,1.21-3,6.19,6.19,0,0,0-.42-3.22,5.82,5.82,0,0,0-2-2.45,6.62,6.62,0,0,0-3.12-1.21,6.48,6.48,0,0,0-3.3.39,6,6,0,0,0-2.49,1.88A6.15,6.15,0,0,0,241.4,156.46Z" transform="translate(-37.9 -26.85)"/><path class="cls-2" d="M232.85,181.6a1.2,1.2,0,0,1,.59-.69,1.12,1.12,0,0,1,.88,0l7.41,2.55a6.12,6.12,0,0,0,3.14.33,4.52,4.52,0,0,0,2.34-1.24,6,6,0,0,0,1.47-2.41,6,6,0,0,0,.32-2.71,4.75,4.75,0,0,0-.86-2.29,3.89,3.89,0,0,0-1.92-1.4l.54-1.56a6.49,6.49,0,0,1,2.88,2.07A6.91,6.91,0,0,1,251,177.4a7.38,7.38,0,0,1-.35,3.64,8,8,0,0,1-2.09,3.33,6.46,6.46,0,0,1-3.33,1.68,8.35,8.35,0,0,1-4.28-.44l-7.41-2.55a1.1,1.1,0,0,1-.67-.58A1.16,1.16,0,0,1,232.85,181.6Zm4.22-12.26a1.2,1.2,0,0,1,.58-.71,1.14,1.14,0,0,1,.89,0l13.4,4.62a1.08,1.08,0,0,1,.73,1.49,1.12,1.12,0,0,1-.57.68,1.16,1.16,0,0,1-.92,0l-13.4-4.61a1.12,1.12,0,0,1-.68-.57A1.14,1.14,0,0,1,237.07,169.34Z" transform="translate(-37.9 -26.85)"/><path class="cls-2" d="M201.51,123.69a2.06,2.06,0,0,1-2.22,2.09q-.79,0-1.68-.06c-.59,0-1.43-.06-2.53-.06-.57,0-1.41,0-2.53.09s-2.39.15-3.81.27l-4.59.38-4.94.45a7,7,0,0,1,0,1,21.17,21.17,0,0,1-2.42,10.27,23.32,23.32,0,0,1-6.43,7.56,28.42,28.42,0,0,1-9.3,4.66,38.31,38.31,0,0,1-11,1.58,24.6,24.6,0,0,1-7.71-1.19,18.9,18.9,0,0,1-6.32-3.47,16.39,16.39,0,0,1-4.27-5.55,17.35,17.35,0,0,1-1.56-7.53,14.8,14.8,0,0,1,1.31-6.27,17.37,17.37,0,0,1,3.55-5.11,20.79,20.79,0,0,1,5.32-3.79,29.55,29.55,0,0,1,6.66-2.39,11.31,11.31,0,0,1-2.13-1.35,10.31,10.31,0,0,1-2-2.09,11.23,11.23,0,0,1-1.51-2.81,9.72,9.72,0,0,1-.6-3.49,15.26,15.26,0,0,1,2-7.88,17.78,17.78,0,0,1,5-5.56,22.22,22.22,0,0,1,6.8-3.29A26.32,26.32,0,0,1,161.91,89a20.81,20.81,0,0,1,5.71.75,14.52,14.52,0,0,1,4.56,2.09,10.12,10.12,0,0,1,3,3.28,8.47,8.47,0,0,1,1.11,4.27,9.74,9.74,0,0,1-2.76,6.81,9.12,9.12,0,0,1-3,2.06,9.46,9.46,0,0,1-3.79.75,8.43,8.43,0,0,1-3.21-.57,8.78,8.78,0,0,1-2.36-1.37,6.61,6.61,0,0,1-1.48-1.67,3.07,3.07,0,0,1-.51-1.47,2.35,2.35,0,0,1,.59-1.61,2,2,0,0,1,1.51-.66,1.34,1.34,0,0,1,1,.33,8.48,8.48,0,0,1,.68.75,11.56,11.56,0,0,0,1.39,1.43,4,4,0,0,0,2.65.72,4.63,4.63,0,0,0,3.7-1.64,5.15,5.15,0,0,0,.94-1.68,5.57,5.57,0,0,0,.31-1.82,4.85,4.85,0,0,0-.6-2.27,6.07,6.07,0,0,0-1.79-2,9.41,9.41,0,0,0-3.07-1.43,16.15,16.15,0,0,0-4.44-.54,22.16,22.16,0,0,0-5.49.75,19.64,19.64,0,0,0-5.46,2.27,13.44,13.44,0,0,0-4.21,3.94,9.73,9.73,0,0,0-1.68,5.7,8.17,8.17,0,0,0,.71,3.62,6.72,6.72,0,0,0,2,2.42,10.25,10.25,0,0,0,3,1.52,33.42,33.42,0,0,0,3.84,1c.53.12,1,.23,1.51.32a5.24,5.24,0,0,1,1.25.42,2.23,2.23,0,0,1,.85.72,2.1,2.1,0,0,1,.32,1.22,2,2,0,0,1-.6,1.53,2.25,2.25,0,0,1-1.62.56c-.68,0-1.69,0-3,.12a30.33,30.33,0,0,0-4.41.63,37.16,37.16,0,0,0-5,1.44,16.53,16.53,0,0,0-4.64,2.56,13.5,13.5,0,0,0-3.41,4,11.69,11.69,0,0,0-1.34,5.79,13.46,13.46,0,0,0,1.23,5.94,11.48,11.48,0,0,0,3.33,4.19,14.38,14.38,0,0,0,4.92,2.45,22.2,22.2,0,0,0,6.06.8,35.94,35.94,0,0,0,9-1.16,25.65,25.65,0,0,0,8-3.56,19,19,0,0,0,5.72-6,16.27,16.27,0,0,0,2.19-8.54,3.19,3.19,0,0,0,0-.45,3.68,3.68,0,0,1,0-.51q-3.06.3-5.54.57t-3.9.39l-.77.09-.48,0a2.4,2.4,0,0,1-1.65-.6,2.4,2.4,0,0,1-.15-3.2,2.22,2.22,0,0,1,1.46-.74l4.26-.48c1.75-.2,3.65-.39,5.72-.57l6.4-.54,6.29-.5q3-.24,5.46-.36t4-.12a10.68,10.68,0,0,1,4.32.59A2,2,0,0,1,201.51,123.69Z" transform="translate(-37.9 -26.85)"/><path class="cls-3" d="M55.74,194.82a101.68,101.68,0,0,0,128.55,42.42A107.18,107.18,0,0,1,62.79,82.54,101.83,101.83,0,0,0,55.74,194.82Z" transform="translate(-37.9 -26.85)"/><circle class="cls-4" cx="30.93" cy="67.38" r="8.26"/><circle class="cls-5" cx="30.93" cy="67.38" r="7.79"/><circle class="cls-6" cx="30.93" cy="67.38" r="6.83"/><path class="cls-3" d="M63.15,95.45A6.81,6.81,0,0,1,74.4,90.27a6.82,6.82,0,1,0-10,9.13A6.84,6.84,0,0,1,63.15,95.45Z" transform="translate(-37.9 -26.85)"/><circle class="cls-5" cx="19.11" cy="110.56" r="5.77"/><circle class="cls-6" cx="19.11" cy="110.56" r="5.06"/><path class="cls-3" d="M52.8,138.31a5,5,0,0,1,8.33-3.83,5,5,0,1,0-7.39,6.76A5,5,0,0,1,52.8,138.31Z" transform="translate(-37.9 -26.85)"/><circle class="cls-5" cx="52.38" cy="39.98" r="5.77"/><circle class="cls-6" cx="52.38" cy="39.98" r="5.06"/><path class="cls-3" d="M86.08,67.73A5,5,0,0,1,94.4,63.9,5,5,0,1,0,87,70.66,5,5,0,0,1,86.08,67.73Z" transform="translate(-37.9 -26.85)"/><circle class="cls-4" cx="63.79" cy="36.54" r="4.97"/><circle class="cls-5" cx="63.79" cy="36.54" r="3.88"/><circle class="cls-6" cx="63.79" cy="36.54" r="3.04"/><path class="cls-3" d="M99.16,63.93a3,3,0,0,1,3-3,3,3,0,0,1,2,.74,3,3,0,0,0-2.47-1.29,3,3,0,0,0-2,5.35A3.06,3.06,0,0,1,99.16,63.93Z" transform="translate(-37.9 -26.85)"/><circle class="cls-4" cx="13.04" cy="131.5" r="9.63"/><circle class="cls-5" cx="13.04" cy="131.5" r="8.05"/><circle class="cls-6" cx="13.04" cy="131.5" r="7.06"/><path class="cls-3" d="M45.06,159.61a7,7,0,0,1,11.63-5.35,7.05,7.05,0,0,0-12.81,4.09,7,7,0,0,0,2.5,5.34A7,7,0,0,1,45.06,159.61Z" transform="translate(-37.9 -26.85)"/><circle class="cls-5" cx="28.7" cy="140.16" r="4.45"/><circle class="cls-6" cx="28.7" cy="140.16" r="3.89"/><path class="cls-3" d="M63.36,167.71a3.87,3.87,0,0,1,6.41-3,3.89,3.89,0,1,0-5.69,5.2A3.87,3.87,0,0,1,63.36,167.71Z" transform="translate(-37.9 -26.85)"/><circle class="cls-4" cx="52.38" cy="182.2" r="12.54"/><circle class="cls-5" cx="52.38" cy="182.2" r="11.41"/><circle class="cls-6" cx="52.38" cy="182.2" r="10.59"/><path class="cls-3" d="M81.46,211a10.55,10.55,0,0,1,17.45-8,10.57,10.57,0,1,0-15.47,14.16A10.48,10.48,0,0,1,81.46,211Z" transform="translate(-37.9 -26.85)"/><circle class="cls-5" cx="78.36" cy="205.93" r="8.48"/><circle class="cls-6" cx="78.36" cy="205.93" r="7.43"/><path class="cls-3" d="M110.08,234.11a7.43,7.43,0,0,1,7.43-7.43,7.34,7.34,0,0,1,4.8,1.8,7.41,7.41,0,1,0-10.85,9.93A7.42,7.42,0,0,1,110.08,234.11Z" transform="translate(-37.9 -26.85)"/><circle class="cls-5" cx="117.25" cy="202.32" r="6.55"/><circle class="cls-6" cx="117.25" cy="202.32" r="4.87"/><path class="cls-3" d="M151.1,230a4.84,4.84,0,0,1,8-3.69,4.86,4.86,0,1,0-7.11,6.51A4.91,4.91,0,0,1,151.1,230Z" transform="translate(-37.9 -26.85)"/><path class="cls-2" d="M125.25,167.85a10.52,10.52,0,0,1,5,1.18,9.11,9.11,0,0,1,3.52,3.28,9,9,0,0,1,1.3,4.84,9.13,9.13,0,0,1-1.29,4.85,8.89,8.89,0,0,1-3.53,3.32,10.74,10.74,0,0,1-5.14,1.2,9.62,9.62,0,0,1-4-.82,11.32,11.32,0,0,1-2.95-1.85v2.22H114.8V160.88h3.35v9.78a10.62,10.62,0,0,1,2.95-1.94A9.73,9.73,0,0,1,125.25,167.85Zm-.46,3.25a8.05,8.05,0,0,0-3.64.79,6.22,6.22,0,0,0-2.51,2.15,5.77,5.77,0,0,0,0,6.22,6.34,6.34,0,0,0,2.51,2.17,8.61,8.61,0,0,0,7.29,0,6.28,6.28,0,0,0,2.49-2.17,5.82,5.82,0,0,0,0-6.22,6.16,6.16,0,0,0-2.49-2.15A8.06,8.06,0,0,0,124.79,171.1Z" transform="translate(-37.9 -26.85)"/><path class="cls-2" d="M161.46,168.23v18H158.1v-3.05a6.85,6.85,0,0,1-1.79,1.63,11.36,11.36,0,0,1-2.67,1.26,10.1,10.1,0,0,1-3.19.5,10.33,10.33,0,0,1-5.09-1.2A8.48,8.48,0,0,1,142,182a9.47,9.47,0,0,1-1.21-4.81,9.3,9.3,0,0,1,1.25-4.84,8.87,8.87,0,0,1,3.51-3.3,10.78,10.78,0,0,1,5.17-1.2,10.65,10.65,0,0,1,4.41.87,8.81,8.81,0,0,1,3,2v-2.53Zm-10.26,15a8.14,8.14,0,0,0,3.68-.8,6.17,6.17,0,0,0,2.47-2.17,6,6,0,0,0,0-6.23,6,6,0,0,0-2.47-2.15,8.27,8.27,0,0,0-3.68-.79,8.08,8.08,0,0,0-3.63.79,6.28,6.28,0,0,0-2.48,2.15,5.9,5.9,0,0,0,0,6.23,6.4,6.4,0,0,0,2.48,2.17A8,8,0,0,0,151.2,183.27Z" transform="translate(-37.9 -26.85)"/><path class="cls-2" d="M173,177.19a5.62,5.62,0,0,0,.91,3.16,6.54,6.54,0,0,0,2.44,2.19,7.31,7.31,0,0,0,3.42.8,9.57,9.57,0,0,0,4.19-.84,22.76,22.76,0,0,0,3-1.69l1.82,2.67a19.27,19.27,0,0,1-3.92,2.11,13.5,13.5,0,0,1-5.17.93,10.75,10.75,0,0,1-5.16-1.23,9.54,9.54,0,0,1-3.63-3.35,9.18,9.18,0,0,1,0-9.52,9.59,9.59,0,0,1,3.63-3.34,10.75,10.75,0,0,1,5.16-1.23,14.68,14.68,0,0,1,5.3.94,9.17,9.17,0,0,1,3.79,2.58l-1.89,2.77a9.52,9.52,0,0,0-2-1.57,11.07,11.07,0,0,0-2.5-1.13,9.07,9.07,0,0,0-2.64-.41,7.43,7.43,0,0,0-3.52.81,5.83,5.83,0,0,0-3.22,5.35Z" transform="translate(-37.9 -26.85)"/><path class="cls-2" d="M196.88,186.18v-25.3H200v16.51l11.07-9.16h4.65l-9.15,7.42,9.28,10.53h-4.29l-7.46-8.48L200,181v5.17Z" transform="translate(-37.9 -26.85)"/></svg>