<svg id="Capa_1" enable-background="new 0 0 512 512" fill="#2E3338" height="512" viewBox="0 0 512 512" width="512" xmlns="http://www.w3.org/2000/svg"><g><g><path d="m361 466c0 8.284 6.716 15 15 15s15-6.716 15-15c0-24.813 20.187-45 45-45 8.284 0 15-6.716 15-15s-6.716-15-15-15c-24.813 0-45-20.187-45-45 0-8.284-6.716-15-15-15s-15 6.716-15 15c0 24.813-20.187 45-45 45-8.284 0-15 6.716-15 15s6.716 15 15 15c24.813 0 45 20.187 45 45zm15-75.052c4.281 5.7 9.353 10.771 15.052 15.052-5.7 4.281-10.772 9.353-15.052 15.052-4.281-5.7-9.353-10.771-15.052-15.052 5.699-4.281 10.771-9.353 15.052-15.052z"/><path d="m0 376c0 8.284 6.716 15 15 15 58.449 0 106 47.551 106 106 0 8.284 6.716 15 15 15s15-6.716 15-15c0-58.449 47.103-106 105-106 8.284 0 15-6.716 15-15s-6.716-15-15-15c-57.897 0-105-47.103-105-105 0-8.284-6.716-15-15-15s-15 6.716-15 15c0 57.897-47.551 105-106 105-8.284 0-15 6.716-15 15zm135.945-58.303c12.896 24.991 33.367 45.462 58.358 58.358-25.033 13.013-45.532 33.682-58.424 58.916-12.989-24.998-33.803-45.836-58.85-58.85 25.234-12.892 45.903-33.391 58.916-58.424z"/><path d="m497 121c-58.449 0-106-47.551-106-106 0-8.284-6.716-15-15-15s-15 6.716-15 15c0 58.449-47.103 106-105 106-8.284 0-15 6.716-15 15s6.716 15 15 15c57.897 0 105 47.103 105 105 0 8.284 6.716 15 15 15s15-6.716 15-15c0-57.897 47.551-105 106-105 8.284 0 15-6.716 15-15s-6.716-15-15-15zm-120.945 73.303c-12.896-24.991-33.367-45.463-58.358-58.358 25.033-13.013 45.532-33.682 58.424-58.916 12.988 24.996 33.803 45.836 58.85 58.85-25.234 12.892-45.903 33.391-58.916 58.424z"/><path d="m121 166c0 8.284 6.716 15 15 15s15-6.716 15-15c0-24.813 20.187-45 45-45 8.284 0 15-6.716 15-15s-6.716-15-15-15c-24.813 0-45-20.187-45-45 0-8.284-6.716-15-15-15s-15 6.716-15 15c0 24.813-20.187 45-45 45-8.284 0-15 6.716-15 15s6.716 15 15 15c24.813 0 45 20.187 45 45zm15-75.052c4.281 5.699 9.353 10.771 15.052 15.052-5.7 4.281-10.772 9.353-15.052 15.052-4.281-5.699-9.353-10.771-15.052-15.052 5.699-4.281 10.771-9.353 15.052-15.052z"/></g></g></svg>
