<svg id="Layer_1" data-name="Layer 1" xmlns="http://www.w3.org/2000/svg" viewBox="0 0 216 220.28"><defs><style>.cls-1{fill:#3d1566;}</style></defs><path class="cls-1" d="M194.2,70.45l.53.33a1.3,1.3,0,0,0,.92.21,1,1,0,0,0,.73-.5,1.19,1.19,0,0,0,.19-.86,1,1,0,0,0-.48-.69l-.68-.42a3,3,0,0,1-1.42-2,3.53,3.53,0,0,1,.56-2.57l4.2-6.7L201.59,59a1,1,0,0,0,.77.15.87.87,0,0,0,.62-.43.94.94,0,0,0,.14-.77,1,1,0,0,0-.48-.63l-2.83-1.78,2.43-3.89a1.13,1.13,0,0,0,.17-.88,1.15,1.15,0,0,0-.53-.72,1,1,0,0,0-.86-.15,1.16,1.16,0,0,0-.71.53l-2.43,3.89-1.64-1a1,1,0,0,0-.77-.16,1,1,0,0,0-.64.46,1,1,0,0,0-.12.75,1.06,1.06,0,0,0,.48.63l1.63,1-4.2,6.7a5.88,5.88,0,0,0-1,2.87,5.28,5.28,0,0,0,.56,2.75A5.43,5.43,0,0,0,194.2,70.45Zm4.87,2.85a1.15,1.15,0,0,0,.42.79,1.08,1.08,0,0,0,.82.31,1.1,1.1,0,0,0,.77-.4l5.82-6.56a3.75,3.75,0,0,1,2-1.21,4.71,4.71,0,0,1,2.41.07,6,6,0,0,1,2.33,1.32,6.2,6.2,0,0,1,1.64,2.24,4.48,4.48,0,0,1,.23,2.59A5.81,5.81,0,0,1,214,75.17l-5.11,5.77a1.1,1.1,0,0,0-.29.81,1.16,1.16,0,0,0,.41.8,1.1,1.1,0,0,0,.81.28,1.08,1.08,0,0,0,.78-.38l5.11-5.76a8.25,8.25,0,0,0,2-3.72,6.49,6.49,0,0,0-.26-3.66,7.94,7.94,0,0,0-2.24-3.15,7.37,7.37,0,0,0-3.17-1.69,6.84,6.84,0,0,0-2.42-.13l.68-.76,4.59-5.18a1.13,1.13,0,0,0,.33-.84,1.15,1.15,0,0,0-.4-.78,1.16,1.16,0,0,0-.84-.32,1.13,1.13,0,0,0-.79.42l-4.7,5.3-9.13,10.3A1.09,1.09,0,0,0,199.07,73.3Zm29,35.38a1.16,1.16,0,0,0,0,.9,1.09,1.09,0,0,0,.55.68,1.13,1.13,0,0,0,.87,0l8.33-2.76a4.28,4.28,0,0,1,3.33.15,4.05,4.05,0,0,1,2.09,2.49,3.63,3.63,0,0,1-.28,3.06,4.83,4.83,0,0,1-2.83,2.09L232,118a1.13,1.13,0,0,0-.67.57,1.16,1.16,0,0,0,0,.88,1.06,1.06,0,0,0,1.42.72l8.1-2.68.05,0h0a4.48,4.48,0,0,1,3.46.06,4,4,0,0,1,2.11,2.47,3.6,3.6,0,0,1-.28,3.06,4.83,4.83,0,0,1-2.82,2.08l-8.1,2.68a1,1,0,0,0-.67.57,1.11,1.11,0,0,0,0,.88,1.15,1.15,0,0,0,.55.68,1.13,1.13,0,0,0,.87,0l8.1-2.68a7.91,7.91,0,0,0,3.14-1.83,5.64,5.64,0,0,0,1.56-2.73,5.86,5.86,0,0,0-.18-3.2,6.38,6.38,0,0,0-1.82-2.86,5.78,5.78,0,0,0-2.53-1.33,5.58,5.58,0,0,0,1.29-2.43,5.87,5.87,0,0,0-.18-3.2,5.8,5.8,0,0,0-1.76-2.66,5.53,5.53,0,0,0-1.55-.92l.65-.22a1.12,1.12,0,0,0,.69-.56,1,1,0,0,0,0-.87,1.1,1.1,0,0,0-.57-.7,1.18,1.18,0,0,0-.89,0l-13.21,4.37A1.12,1.12,0,0,0,228,108.68Zm15.08,24.17a8.44,8.44,0,0,0-4.15,1.38,7.92,7.92,0,0,0-2.7,3.15,8.45,8.45,0,0,0-.74,4.31,8.36,8.36,0,0,0,1.38,4.13,8,8,0,0,0,3.15,2.69,8.25,8.25,0,0,0,4.31.76,8.75,8.75,0,0,0,4.16-1.42,7.84,7.84,0,0,0,2.71-3.14,8.94,8.94,0,0,0-.64-8.43,7.76,7.76,0,0,0-3.15-2.7A8.38,8.38,0,0,0,243.11,132.85Zm5.76,4.72a6.34,6.34,0,0,1,.47,6.14,5.59,5.59,0,0,1-2,2.3,6.51,6.51,0,0,1-3.11,1,6.43,6.43,0,0,1-3.22-.52,5.68,5.68,0,0,1-2.35-2,6,6,0,0,1-1-3,6,6,0,0,1,.56-3.13,5.78,5.78,0,0,1,2-2.31,6.29,6.29,0,0,1,3.1-1,6.44,6.44,0,0,1,3.24.54A5.81,5.81,0,0,1,248.87,137.57ZM216,84.48a7.61,7.61,0,0,0-.56,4.08,8.49,8.49,0,0,0,1.73,4,8.84,8.84,0,0,0,2.2,2,7.89,7.89,0,0,0,2.6,1.14.83.83,0,0,0,.77-.16,1,1,0,0,0,.37-.78,1,1,0,0,0-.25-.7,1.28,1.28,0,0,0-.67-.42,5.41,5.41,0,0,1-1.8-.81,6.67,6.67,0,0,1-1.59-1.49,6,6,0,0,1-1.26-3,5.78,5.78,0,0,1,.44-3,6.13,6.13,0,0,1,1.51-2.08l7.24,9.52a1.05,1.05,0,0,0,.69.44,1,1,0,0,0,.78-.22,9.06,9.06,0,0,0,2.72-3.22,6.81,6.81,0,0,0,.68-3.77A7.38,7.38,0,0,0,230,82.24a7.41,7.41,0,0,0-7.27-3,8.94,8.94,0,0,0-4,1.8A8.53,8.53,0,0,0,216,84.48Zm7-3.11a5.31,5.31,0,0,1,5.37,2.11,5,5,0,0,1,.55,5.5,6.58,6.58,0,0,1-1.4,1.74L221,82.16A6.73,6.73,0,0,1,223,81.37Zm-29.63,84.14v24.85h3v-5.07l4-3.25,7.32,8.32H212L202.87,180l9-7.29h-4.57l-10.87,9V165.51Zm34.3,34.16c-28.33,15.69-58.43,22-84.75,17.62-25-4.12-45.15-17.33-56.63-37.2a79.47,79.47,0,0,1-7.84-61.22C86,91.29,107.27,67,139.9,48.72a2.63,2.63,0,0,0,1.26-3,2.61,2.61,0,0,0-2.62-2,105.18,105.18,0,1,0,92.68,159.6,2.65,2.65,0,0,0-3.55-3.69Zm-36.51,35.74A99.64,99.64,0,0,1,181,240.52a105.29,105.29,0,0,1-119.34-152s8.67-14.69,29.64-26.14A106.69,106.69,0,0,1,127.53,50c-28.38,18.24-47,41.4-54.19,67.5a84.72,84.72,0,0,0,8.36,65.28C94,204,115.42,218.14,142.06,222.52c24.61,4,52.28-.72,78.88-13.42A100,100,0,0,1,191.16,235.41Zm-78.42-69.9v24.75H116v-2.18a11.19,11.19,0,0,0,2.89,1.81,9.35,9.35,0,0,0,3.92.81,10.56,10.56,0,0,0,5.06-1.18,8.83,8.83,0,0,0,3.47-3.25,9,9,0,0,0,1.26-4.77,8.84,8.84,0,0,0-1.28-4.75,8.94,8.94,0,0,0-3.45-3.23,10.31,10.31,0,0,0-4.9-1.16,9.59,9.59,0,0,0-4.08.86,10.34,10.34,0,0,0-2.89,1.9v-9.61Zm3.77,12.93a6.2,6.2,0,0,1,2.46-2.11,8.73,8.73,0,0,1,7.17,0,6,6,0,0,1,2.44,2.11,5.45,5.45,0,0,1,.88,3.06,5.4,5.4,0,0,1-.88,3.05,6.14,6.14,0,0,1-2.44,2.14,8.53,8.53,0,0,1-7.17,0,6.34,6.34,0,0,1-2.46-2.14,5.34,5.34,0,0,1-.9-3.05A5.39,5.39,0,0,1,116.51,178.44Zm130.94-.81-13.16-4.53a1.06,1.06,0,0,0-1.44.73,1.07,1.07,0,0,0,.69,1.43l8.3,2.85a3.76,3.76,0,0,1,1.87,1.37,4.64,4.64,0,0,1,.86,2.25,6.4,6.4,0,0,1-1.77,5,4.45,4.45,0,0,1-2.29,1.22,5.89,5.89,0,0,1-3.08-.33l-7.29-2.5a1.07,1.07,0,0,0-.86,0,1.16,1.16,0,0,0-.58.68,1.11,1.11,0,0,0,.05.86,1.08,1.08,0,0,0,.65.57l7.28,2.51a8.29,8.29,0,0,0,4.21.43,6.38,6.38,0,0,0,3.27-1.65,8,8,0,0,0,2.06-3.27,7.36,7.36,0,0,0,.33-3.58,6.79,6.79,0,0,0-.86-2.3l1,.35a1.07,1.07,0,0,0,1.46-.69,1.08,1.08,0,0,0-.72-1.47Zm.89-22.27a9,9,0,0,0-8.43-1.07,7.79,7.79,0,0,0-3.28,2.54,8.38,8.38,0,0,0-1.58,4.06,8.22,8.22,0,0,0,.53,4.33,7.91,7.91,0,0,0,2.54,3.28,8.28,8.28,0,0,0,4.06,1.61,8.67,8.67,0,0,0,4.37-.55,7.91,7.91,0,0,0,3.28-2.52,8.34,8.34,0,0,0,1.58-4.06,8.44,8.44,0,0,0-.52-4.33A7.86,7.86,0,0,0,248.34,155.36Zm1,7.36a6,6,0,0,1-1.17,3,5.74,5.74,0,0,1-2.46,1.83,6.54,6.54,0,0,1-3.26.36,6.48,6.48,0,0,1-3-1.16,5.78,5.78,0,0,1-1.91-2.39,6.34,6.34,0,0,1,.77-6.12,5.84,5.84,0,0,1,2.45-1.85A6.33,6.33,0,0,1,244,156a6.55,6.55,0,0,1,3.06,1.18,5.86,5.86,0,0,1,1.92,2.41A6,6,0,0,1,249.35,162.72Zm-90.78,27.64V172.73h-3.3v2.49a8.56,8.56,0,0,0-2.92-2,10.51,10.51,0,0,0-4.34-.86,10.7,10.7,0,0,0-5.08,1.18,8.6,8.6,0,0,0-3.44,3.24,9.11,9.11,0,0,0-1.23,4.75,9.42,9.42,0,0,0,1.18,4.74,8.35,8.35,0,0,0,3.31,3.25,10.14,10.14,0,0,0,5,1.18,9.73,9.73,0,0,0,3.13-.49,11.2,11.2,0,0,0,2.63-1.24,6.39,6.39,0,0,0,1.75-1.6v3Zm-4-5.77a6.17,6.17,0,0,1-2.43,2.13,7.91,7.91,0,0,1-3.62.79,7.68,7.68,0,0,1-3.56-.79,6.17,6.17,0,0,1-2.43-2.13,5.45,5.45,0,0,1-.88-3.06,5.4,5.4,0,0,1,.88-3.05,6,6,0,0,1,2.43-2.12,7.93,7.93,0,0,1,3.56-.77,8.17,8.17,0,0,1,3.62.77,6,6,0,0,1,2.43,2.12,5.54,5.54,0,0,1,.86,3.05A5.6,5.6,0,0,1,154.54,184.59ZM151.25,41.14l1.9.25-1,7.84a6.16,6.16,0,0,0,.32,3,5.24,5.24,0,0,0,4.34,3.35l.62.08a1.25,1.25,0,0,0,.92-.19,1.05,1.05,0,0,0,.46-.76,1.19,1.19,0,0,0-.19-.86,1,1,0,0,0-.72-.42l-.79-.11a3,3,0,0,1-2.14-1.25,3.51,3.51,0,0,1-.56-2.56l1-7.84,3.31.43a1,1,0,0,0,.78-.18,1,1,0,0,0,.38-.66.94.94,0,0,0-.2-.75,1,1,0,0,0-.7-.38l-3.32-.43.6-4.55a1.1,1.1,0,0,0-.21-.87,1.17,1.17,0,0,0-.78-.43,1.08,1.08,0,0,0-.85.22,1.2,1.2,0,0,0-.42.78l-.6,4.55-1.91-.25a1.08,1.08,0,0,0-.77.19,1,1,0,0,0-.18,1.41A1,1,0,0,0,151.25,41.14Zm14,15.26A8.43,8.43,0,0,0,169,58.66a8.28,8.28,0,0,0,4.34.21A7.86,7.86,0,0,0,177,56.92a8.29,8.29,0,0,0,2.28-3.74,8.68,8.68,0,0,0,.19-4.39,7.73,7.73,0,0,0-1.93-3.66,8.24,8.24,0,0,0-3.73-2.25,8.46,8.46,0,0,0-4.36-.22,7.77,7.77,0,0,0-3.66,2,8.5,8.5,0,0,0-2.27,3.77,8.35,8.35,0,0,0-.21,4.36A7.6,7.6,0,0,0,165.28,56.4Zm.39-7.37a6.51,6.51,0,0,1,1.68-2.82,5.71,5.71,0,0,1,2.7-1.48,6,6,0,0,1,3.18.13,6.06,6.06,0,0,1,2.71,1.66,5.75,5.75,0,0,1,1.4,2.74,6.57,6.57,0,0,1-.2,3.27,6.35,6.35,0,0,1-1.66,2.8,5.69,5.69,0,0,1-2.68,1.48,6.36,6.36,0,0,1-5.89-1.8,5.85,5.85,0,0,1-1.42-2.72A6.29,6.29,0,0,1,165.67,49Zm-27.34,63.4a9.7,9.7,0,0,0,.59,3.44,11.11,11.11,0,0,0,1.48,2.75,10.51,10.51,0,0,0,2,2.06,10.9,10.9,0,0,0,2.1,1.32,29.46,29.46,0,0,0-6.54,2.34,20.35,20.35,0,0,0-5.23,3.73,17.09,17.09,0,0,0-3.49,5,14.62,14.62,0,0,0-1.29,6.16,17,17,0,0,0,1.54,7.39,16.15,16.15,0,0,0,4.19,5.46,18.51,18.51,0,0,0,6.21,3.4,24,24,0,0,0,7.57,1.18,37.35,37.35,0,0,0,10.79-1.56,27.94,27.94,0,0,0,9.14-4.58,22.94,22.94,0,0,0,6.31-7.42A20.83,20.83,0,0,0,176.06,133a5.25,5.25,0,0,0-.06-.94l4.87-.44,4.5-.38c1.39-.12,2.64-.21,3.74-.26s1.93-.09,2.49-.09c1.08,0,1.91,0,2.48.06s1.13.05,1.65.05a2.07,2.07,0,0,0,1.62-.61,2,2,0,0,0,.56-1.44,2,2,0,0,0-1.11-1.88,10.42,10.42,0,0,0-4.25-.58c-1,0-2.27,0-3.89.11s-3.41.2-5.36.36l-6.18.49-6.29.53c-2,.18-3.9.36-5.61.56L161,129a2.18,2.18,0,0,0-1.42.73,2.1,2.1,0,0,0-.53,1.44,2.13,2.13,0,0,0,.67,1.7,2.36,2.36,0,0,0,1.62.59l.47,0,.76-.09c.93-.08,2.21-.2,3.83-.38s3.43-.36,5.45-.56c0,.2,0,.37,0,.5a3.15,3.15,0,0,1,0,.44,16,16,0,0,1-2.15,8.39,18.72,18.72,0,0,1-5.62,5.93,25.2,25.2,0,0,1-7.85,3.49,35.13,35.13,0,0,1-8.86,1.14,21.45,21.45,0,0,1-5.95-.79,14.17,14.17,0,0,1-4.84-2.4,11.54,11.54,0,0,1-3.27-4.11,13.33,13.33,0,0,1-1.2-5.84,11.43,11.43,0,0,1,1.32-5.69,13.12,13.12,0,0,1,3.35-4A16.2,16.2,0,0,1,141.4,127a37.19,37.19,0,0,1,4.89-1.4,30.77,30.77,0,0,1,4.34-.62c1.3-.08,2.29-.12,3-.12a2.21,2.21,0,0,0,1.59-.55,2,2,0,0,0,.59-1.5,2,2,0,0,0-.31-1.2,2.1,2.1,0,0,0-.84-.71,5.37,5.37,0,0,0-1.23-.41l-1.48-.32a32.22,32.22,0,0,1-3.77-1,9.52,9.52,0,0,1-2.93-1.5,6.4,6.4,0,0,1-1.93-2.37,8,8,0,0,1-.7-3.55,9.61,9.61,0,0,1,1.65-5.61,13.51,13.51,0,0,1,4.13-3.87,19.85,19.85,0,0,1,5.37-2.23,21.86,21.86,0,0,1,5.39-.73,15.62,15.62,0,0,1,4.36.53,9.31,9.31,0,0,1,3,1.4,6.1,6.1,0,0,1,1.76,2,4.77,4.77,0,0,1,.59,2.23,5.44,5.44,0,0,1-.31,1.79,4.92,4.92,0,0,1-.92,1.64,4.64,4.64,0,0,1-1.51,1.18,4.83,4.83,0,0,1-2.12.44,3.9,3.9,0,0,1-2.6-.71,10.57,10.57,0,0,1-1.37-1.41,9.85,9.85,0,0,0-.67-.73,1.35,1.35,0,0,0-.95-.32,1.9,1.9,0,0,0-1.48.64,2.24,2.24,0,0,0-.59,1.59,3,3,0,0,0,.5,1.43,6.61,6.61,0,0,0,1.45,1.65,8.8,8.8,0,0,0,2.32,1.35,8.41,8.41,0,0,0,3.16.55,9.32,9.32,0,0,0,3.72-.73,9.11,9.11,0,0,0,3-2,9.66,9.66,0,0,0,2-3,9.41,9.41,0,0,0,.72-3.66,8.27,8.27,0,0,0-1.09-4.2,9.9,9.9,0,0,0-3-3.23,14.61,14.61,0,0,0-4.47-2A20.59,20.59,0,0,0,159,95a25.75,25.75,0,0,0-7.12,1,21.56,21.56,0,0,0-6.68,3.23,17.52,17.52,0,0,0-5,5.46A15,15,0,0,0,138.33,112.43ZM173,176.28a7.25,7.25,0,0,1,3.45-.79,8.73,8.73,0,0,1,2.59.4,10.52,10.52,0,0,1,2.46,1.11,9.41,9.41,0,0,1,1.95,1.54l1.86-2.72a8.94,8.94,0,0,0-3.73-2.53,14.16,14.16,0,0,0-5.19-.93,10.61,10.61,0,0,0-5.07,1.21,9.35,9.35,0,0,0-3.57,3.28,9,9,0,0,0,0,9.35,9.29,9.29,0,0,0,3.57,3.29,10.49,10.49,0,0,0,5.07,1.21,13.28,13.28,0,0,0,5.07-.91,18.6,18.6,0,0,0,3.85-2.08l-1.79-2.62a21,21,0,0,1-2.93,1.66,9.38,9.38,0,0,1-4.11.83,7.21,7.21,0,0,1-3.36-.79,6.4,6.4,0,0,1-2.4-2.15,5.58,5.58,0,0,1-.89-3.11,5.84,5.84,0,0,1,.83-3.1A5.74,5.74,0,0,1,173,176.28Z" transform="translate(-36 -33.86)"/></svg>